<svg width="32" height="32" viewBox="0 0 32 32" fill="none" xmlns="http://www.w3.org/2000/svg">
  <circle cx="16" cy="16" r="4" fill="white"/>
  <path d="M17.5 5L18.5 8.1C19.2 8.3 19.9 8.6 20.5 9L23.5 7.7L25 10.3L22.4 12.2C22.5 12.8 22.6 13.4 22.6 14C22.6 14.6 22.5 15.2 22.4 15.8L25 17.7L23.5 20.3L20.5 19C19.9 19.4 19.2 19.7 18.5 19.9L17.5 23H14.5L13.5 19.9C12.8 19.7 12.1 19.4 11.5 19L8.5 20.3L7 17.7L9.6 15.8C9.5 15.2 9.4 14.6 9.4 14C9.4 13.4 9.5 12.8 9.6 12.2L7 10.3L8.5 7.7L11.5 9C12.1 8.6 12.8 8.3 13.5 8.1L14.5 5H17.5Z" fill="#2563EB"/>
</svg>
